<?xml version="1.0" standalone="no"?>
<!DOCTYPE svg PUBLIC "-//W3C//DTD SVG 20010904//EN"
 "http://www.w3.org/TR/2001/REC-SVG-20010904/DTD/svg10.dtd">
<svg version="1.0" xmlns="http://www.w3.org/2000/svg"
 width="460.000000pt" height="460.000000pt" viewBox="0 0 460.000000 460.000000"
 preserveAspectRatio="xMidYMid meet">
<metadata>
Created by potrace 1.14, written by Peter Selinger 2001-2017
</metadata>
<g transform="translate(0.000000,460.000000) scale(0.100000,-0.100000)"
fill="#000000" stroke="none">
<path d="M2167 4454 c-1 -1 -51 -5 -110 -9 -169 -11 -255 -28 -322 -64 -112
-60 -140 -80 -211 -151 -111 -112 -193 -289 -281 -610 -15 -55 -18 -107 -18
-341 0 -241 2 -279 16 -295 9 -11 35 -73 57 -138 23 -65 50 -128 60 -140 11
-12 36 -52 57 -90 21 -38 60 -92 87 -120 26 -28 48 -57 49 -66 0 -8 3 -40 7
-70 3 -30 5 -71 3 -90 -1 -19 -3 -78 -4 -130 -1 -88 2 -102 37 -195 21 -55 53
-140 71 -190 18 -49 40 -108 48 -130 16 -43 64 -98 78 -89 5 3 9 -2 9 -10 0
-9 4 -16 9 -16 4 0 6 12 3 26 -5 26 -4 26 39 20 27 -3 34 -2 19 2 -31 10 -33
37 -2 36 26 -1 29 13 5 33 -13 11 -14 13 -3 10 8 -2 33 4 55 14 22 11 29 16
15 12 -42 -11 -77 -10 -77 1 0 6 -4 18 -7 27 -4 9 2 23 15 35 13 10 19 13 15
7 -4 -7 -3 -13 3 -13 5 0 12 6 15 13 3 9 9 7 19 -6 10 -12 26 -17 53 -15 23 1
39 -2 42 -10 2 -7 10 -12 18 -12 8 0 14 -6 14 -12 0 -7 9 -2 19 11 20 26 51
24 51 -3 0 -20 22 -25 38 -9 7 7 21 13 30 13 15 -1 15 -2 -1 -14 -26 -20 -14
-86 14 -79 13 4 19 0 19 -11 0 -9 -7 -16 -16 -16 -11 0 -14 -5 -9 -17 18 -44
17 -53 -6 -62 -34 -14 -4 -12 59 2 43 10 59 20 85 54 55 72 158 243 259 432
22 41 47 81 56 88 9 7 12 13 5 13 -15 0 -4 40 11 40 17 0 30 26 55 110 33 114
89 219 131 245 110 70 219 233 288 430 38 108 81 327 88 446 6 109 5 121 -24
225 -17 60 -35 134 -42 165 -6 31 -26 80 -45 110 -19 29 -42 74 -51 99 -22 61
-64 148 -117 245 -31 57 -58 91 -93 118 -61 47 -80 55 -174 72 -41 7 -86 18
-100 23 -44 17 -401 57 -413 46z m133 -826 c63 -5 122 -11 131 -14 8 -2 25
-21 37 -42 11 -20 32 -51 46 -67 14 -17 37 -52 50 -80 80 -167 137 -295 147
-330 6 -22 15 -44 20 -49 16 -17 10 -36 -8 -29 -10 4 -20 9 -23 13 -24 30
-177 65 -207 47 -8 -4 -163 14 -235 28 -24 5 -38 3 -38 -3 0 -5 28 -13 63 -17
64 -8 119 -23 85 -24 -9 -1 -23 -13 -30 -28 -21 -43 -40 -49 -105 -33 -52 14
-58 18 -63 45 -3 18 -15 34 -30 42 -24 12 -22 13 25 14 49 1 49 1 15 10 -19 4
-61 9 -92 11 -32 1 -52 6 -45 10 9 6 8 8 -3 8 -8 0 -26 6 -40 13 -14 7 -45 14
-70 16 -25 2 -48 5 -51 7 -4 2 -29 -2 -58 -10 -28 -7 -51 -11 -51 -8 0 39 261
389 340 456 33 28 30 27 190 14z m-355 -528 c10 -15 -13 -39 -35 -37 -10 1
-17 4 -16 7 2 3 6 13 9 23 7 19 32 23 42 7z m-163 -30 c-4 -31 -9 -34 -36 -24
-23 9 -20 33 7 44 33 13 34 13 29 -20z m641 -37 c-7 -2 -21 -2 -30 0 -10 3 -4
5 12 5 17 0 24 -2 18 -5z m248 -25 c34 -12 59 -30 61 -45 0 -4 3 -14 5 -20 7
-17 -5 -46 -15 -39 -4 2 -14 1 -22 -4 -23 -15 2 -45 34 -43 16 1 26 -3 25 -10
-3 -20 12 -47 27 -47 22 0 27 -43 21 -178 -7 -142 -34 -243 -78 -290 -14 -15
-32 -38 -39 -52 -7 -14 -20 -30 -28 -36 -9 -6 -12 -16 -7 -24 5 -9 2 -10 -12
-6 -12 4 -25 1 -33 -9 -7 -8 -16 -13 -20 -10 -4 3 -10 -2 -14 -10 -11 -29 -38
-17 -45 20 -2 6 -9 14 -17 18 -21 12 -17 26 6 20 26 -7 26 10 0 28 -12 9 -21
29 -23 54 -2 22 -8 48 -12 58 -4 10 -5 20 -2 24 10 9 -53 56 -78 59 -13 1 -40
14 -59 29 -19 14 -36 25 -38 24 -2 -1 -23 1 -47 5 -27 4 -48 2 -56 -4 -10 -9
-16 -6 -24 9 -7 12 -19 18 -31 16 -22 -4 -23 -3 -14 19 4 11 12 13 27 7 12 -5
28 -6 36 -3 17 6 -53 31 -77 27 -9 -1 -11 0 -4 2 7 3 11 10 9 16 -6 19 -43 19
-62 1 -17 -17 -18 -17 -36 5 -11 13 -19 36 -19 52 0 23 8 33 40 51 22 13 40
27 40 32 0 5 27 49 60 98 64 96 70 114 43 121 -29 8 49 5 82 -2 17 -4 29 -12
28 -17 -5 -29 17 -146 32 -166 10 -13 15 -16 13 -8 -16 48 -19 64 -10 51 6 -8
26 -15 46 -15 25 -1 38 -6 42 -18 4 -14 15 -16 65 -13 35 2 72 11 87 21 l26
17 -22 8 c-12 5 -22 13 -22 19 0 6 5 8 10 5 6 -3 10 -2 10 3 0 14 42 23 56 11
8 -6 14 -5 18 6 3 10 -8 24 -34 42 -22 14 -38 28 -35 31 3 3 25 -9 50 -27 59
-43 59 -17 0 28 -74 55 -53 90 36 59z m-661 -49 c0 -5 -7 -9 -15 -9 -9 0 -12
6 -9 15 6 15 24 11 24 -6z m771 -1 c1 -7 1 -16 0 -20 0 -5 4 -8 9 -8 6 0 10
-6 10 -14 0 -13 -20 -26 -41 -26 -10 0 -12 40 -3 64 7 19 24 21 25 4z m-1118
-18 c3 -11 1 -18 -4 -14 -5 3 -9 12 -9 20 0 20 7 17 13 -6z m664 -27 c-3 -10
-5 -4 -5 12 0 17 2 24 5 18 2 -7 2 -21 0 -30z m133 -4 c0 -6 -4 -7 -10 -4 -5
3 -10 11 -10 16 0 6 5 7 10 4 6 -3 10 -11 10 -16z m-786 -71 c6 -28 60 -88 79
-88 6 0 -4 12 -22 28 -25 21 -34 37 -38 72 -6 41 -5 44 10 31 10 -7 17 -21 17
-30 0 -14 -2 -14 -11 -1 -9 13 -10 13 -6 0 5 -18 76 -19 87 0 5 8 16 9 30 5
38 -12 55 -13 62 -2 3 6 10 -4 15 -23 9 -34 48 -58 76 -47 20 8 32 7 32 0 0
-5 3 -13 7 -19 13 -19 -3 -54 -26 -55 -15 -1 -16 -3 -5 -6 11 -3 19 -20 23
-55 6 -44 11 -52 36 -61 17 -6 30 -14 30 -18 0 -14 -52 -40 -67 -35 -9 4 -24
-1 -34 -10 -12 -11 -19 -13 -19 -5 0 9 -5 9 -20 1 -11 -6 -24 -8 -29 -5 -5 3
-18 -5 -28 -18 -10 -13 -26 -26 -36 -30 -12 -5 -17 -15 -15 -34 2 -15 -1 -28
-7 -28 -5 0 -20 -10 -32 -22 -24 -24 -31 -39 -13 -28 6 3 10 1 10 -4 0 -6 -4
-11 -10 -11 -5 0 -10 -5 -10 -11 0 -6 9 -8 23 -4 15 4 18 3 8 -3 -9 -7 -10
-12 -2 -16 8 -5 7 -11 -2 -21 -8 -9 -16 -10 -24 -3 -7 6 -19 8 -27 5 -15 -6
-56 31 -56 51 0 6 6 15 14 19 12 7 13 16 3 51 -12 46 -31 59 -22 15 4 -20 0
-16 -14 15 -11 23 -18 49 -15 57 4 8 2 15 -4 15 -6 0 -12 -5 -14 -10 -2 -6 -9
-1 -16 10 -10 17 -10 20 5 20 12 0 14 3 7 8 -19 11 -34 78 -21 91 6 6 7 11 2
11 -6 0 -10 35 -9 78 1 103 3 114 13 108 4 -3 6 6 3 19 -2 15 0 25 7 25 6 0
11 6 11 14 0 8 6 16 13 19 12 4 19 -12 31 -65z m1186 48 c0 -9 -40 -13 -46 -5
-3 5 6 9 20 9 14 0 26 -2 26 -4z m-670 -447 c0 -4 -7 -6 -15 -3 -8 4 -15 10
-15 15 0 4 7 6 15 3 8 -4 15 -10 15 -15z m45 1 c-3 -5 -13 -10 -21 -10 -8 0
-14 5 -14 10 0 6 9 10 21 10 11 0 17 -4 14 -10z m65 -40 c0 -5 -5 -10 -11 -10
-5 0 -7 5 -4 10 3 6 8 10 11 10 2 0 4 -4 4 -10z m-80 -34 c30 -2 69 -4 85 -5
23 -1 27 -3 15 -11 -11 -7 -4 -10 27 -10 33 0 46 -6 62 -25 11 -15 18 -35 16
-45 -3 -14 2 -20 16 -20 12 0 23 -10 29 -25 5 -14 14 -25 20 -25 5 0 10 -7 10
-15 0 -8 -4 -15 -9 -15 -5 0 -12 -9 -16 -19 -7 -24 -41 -33 -59 -15 -19 19
-28 18 -24 -2 2 -9 -11 -31 -28 -50 -29 -30 -34 -32 -68 -24 -21 4 -40 11 -43
14 -4 3 -13 1 -20 -6 -9 -7 -17 -8 -21 -2 -10 13 -32 16 -32 3 0 -5 -4 -7 -10
-4 -5 3 -10 18 -10 33 l-1 27 -14 -30 c-7 -16 -14 -26 -14 -21 -1 5 -9 2 -18
-5 -13 -11 -15 -11 -9 -1 5 9 3 12 -5 11 -18 -4 -80 26 -106 50 -11 10 -29 22
-41 25 -11 4 -22 17 -24 29 -2 12 -9 21 -16 20 -6 -2 -11 0 -10 5 3 13 -26 97
-36 104 -17 11 24 36 56 34 15 -1 28 2 28 7 0 11 73 1 102 -14 18 -10 24 -8
35 7 7 10 13 21 13 25 0 4 15 5 33 2 18 -2 57 -5 87 -7z m310 -191 c0 -8 -4
-15 -10 -15 -5 0 -10 -7 -10 -17 0 -9 -3 -14 -6 -10 -9 9 5 57 16 57 6 0 10
-7 10 -15z m-575 -345 c3 -6 -1 -7 -9 -4 -18 7 -21 14 -7 14 6 0 13 -4 16 -10z
m369 -16 c3 -8 2 -12 -4 -9 -6 3 -10 10 -10 16 0 14 7 11 14 -7z m-220 -79 c3
-8 1 -15 -3 -15 -5 0 -11 7 -15 15 -3 8 -1 15 3 15 5 0 11 -7 15 -15z m136
-219 c0 -3 -4 -8 -10 -11 -5 -3 -10 -1 -10 4 0 6 5 11 10 11 6 0 10 -2 10 -4z"/>
<path d="M2282 2900 c0 -19 2 -27 5 -17 2 9 2 25 0 35 -3 9 -5 1 -5 -18z"/>
<path d="M2292 2601 c-10 -6 -6 -10 15 -16 26 -7 26 -8 8 -15 -13 -6 -15 -9
-5 -9 8 0 22 4 30 9 13 9 12 12 -4 25 -23 17 -26 18 -44 6z"/>
<path d="M1810 2830 c0 -5 12 -10 28 -10 21 0 24 2 12 10 -20 13 -40 13 -40 0z"/>
<path d="M1700 2425 c0 -8 4 -15 10 -15 5 0 7 7 4 15 -4 8 -8 15 -10 15 -2 0
-4 -7 -4 -15z"/>
<path d="M2030 2275 c0 -8 5 -17 11 -20 6 -4 8 -13 5 -21 -3 -7 1 -24 7 -38
12 -21 15 -22 32 -10 23 17 42 4 48 -34 4 -27 4 -27 12 -4 5 14 13 21 21 18
22 -8 43 4 37 21 -5 13 -3 13 15 4 22 -12 27 -7 23 25 -1 7 8 14 20 17 56 15
-43 47 -161 52 -54 2 -70 0 -70 -10z m156 -102 c-7 -7 -26 7 -26 19 0 6 6 6
15 -2 9 -7 13 -15 11 -17z"/>
<path d="M1936 1615 c4 -8 1 -15 -6 -15 -6 0 -8 -4 -5 -10 3 -5 18 -10 33 -10
23 1 25 2 10 11 -10 5 -18 14 -18 19 0 5 8 11 18 13 10 3 7 5 -10 6 -20 1 -26
-3 -22 -14z"/>
<path d="M1878 1523 c24 -9 12 -22 -13 -13 -13 5 -27 5 -30 1 -8 -15 46 -23
61 -10 12 10 12 14 2 20 -7 5 -17 8 -23 8 -5 0 -4 -3 3 -6z"/>
<path d="M1920 1480 c14 -4 34 -8 45 -8 l20 -1 -20 9 c-11 5 -31 8 -45 8 l-25
0 25 -8z"/>
<path d="M2013 1473 c9 -2 23 -2 30 0 6 3 -1 5 -18 5 -16 0 -22 -2 -12 -5z"/>
<path d="M2083 1473 c9 -2 25 -2 35 0 9 3 1 5 -18 5 -19 0 -27 -2 -17 -5z"/>
<path d="M471 444 c0 -11 3 -14 6 -6 3 7 2 16 -1 19 -3 4 -6 -2 -5 -13z"/>
<path d="M3340 296 c0 -9 5 -16 10 -16 6 0 10 4 10 9 0 6 -4 13 -10 16 -5 3
-10 -1 -10 -9z"/>
<path d="M3330 235 c0 -17 2 -18 24 -9 18 7 12 24 -10 24 -8 0 -14 -7 -14 -15z"/>
<path d="M1762 200 c0 -14 2 -19 5 -12 2 6 2 18 0 25 -3 6 -5 1 -5 -13z"/>
<path d="M1752 140 c0 -19 2 -27 5 -17 2 9 2 25 0 35 -3 9 -5 1 -5 -18z"/>
<path d="M3327 163 c7 -2 15 -4 19 -3 4 1 11 -4 15 -12 7 -10 9 -9 9 5 0 12
-8 17 -27 16 -16 0 -22 -3 -16 -6z"/>
<path d="M1742 40 c0 -19 2 -27 5 -17 2 9 2 25 0 35 -3 9 -5 1 -5 -18z"/>
</g>
</svg>
